<svg width="36" height="27" viewBox="0 0 36 27" fill="none" xmlns="http://www.w3.org/2000/svg">
<path d="M10.9339 8.13879V8.63879H11.4339H35.1839C35.3461 8.63879 35.4756 8.77111 35.4756 8.92667V18.3812C35.4756 22.4361 32.1392 25.76 28.0589 25.76H8.26728C4.18699 25.76 0.850616 22.4361 0.850616 18.3812V8.92667C0.850616 8.77112 0.980119 8.63879 1.14228 8.63879H1.93395H2.43395V8.13879V6.95697C2.43395 6.80142 2.56346 6.66909 2.72562 6.66909C2.88778 6.66909 3.01728 6.80142 3.01728 6.95697V8.13879V8.63879H3.51728H5.89228H6.39228V8.13879V3.01758C6.39228 1.76024 7.39388 0.760002 8.66311 0.760002C9.93235 0.760002 10.9339 1.76025 10.9339 3.01758C10.9339 3.17313 10.8044 3.30546 10.6423 3.30546C10.4801 3.30546 10.3506 3.17313 10.3506 3.01758C10.3506 2.0698 9.60959 1.33576 8.66311 1.33576C7.71664 1.33576 6.97562 2.0698 6.97562 3.01758V8.13879V8.63879H7.47562H9.85061H10.3506V8.13879V6.95697C10.3506 6.80142 10.4801 6.66909 10.6423 6.66909C10.8044 6.66909 10.9339 6.80142 10.9339 6.95697V8.13879ZM26.9756 9.71455V9.21455H26.4756H24.1006H23.6006V9.71455V14.4418V14.9418H24.1006H26.4756H26.9756V14.4418V9.71455ZM23.0173 9.71455V9.21455H22.5173H20.1423H19.6423V9.71455V18.3812V18.8812H20.1423H30.4339H30.9339V18.3812V9.71455V9.21455H30.4339H28.0589H27.5589V9.71455V15.2297C27.5589 15.3853 27.4294 15.5176 27.2673 15.5176H23.3089C23.1468 15.5176 23.0173 15.3853 23.0173 15.2297V9.71455ZM1.93395 9.21455H1.43395V9.71455V18.3812C1.43395 22.1266 4.50975 25.1842 8.26728 25.1842H28.0589C31.8165 25.1842 34.8923 22.1266 34.8923 18.3812V9.71455V9.21455H34.3923H32.0173H31.5173V9.71455V19.1691C31.5173 19.3246 31.3878 19.457 31.2256 19.457H19.3506C19.1885 19.457 19.0589 19.3246 19.0589 19.1691V9.71455V9.21455H18.5589H1.93395Z" stroke="#828282"/>
</svg>
