<svg width="37" height="25" viewBox="0 0 37 25" fill="none" xmlns="http://www.w3.org/2000/svg">
<path d="M15.7343 6.42406H32.1386C32.5214 6.42406 32.9392 6.50076 33.2475 6.73443C33.5166 6.93839 33.8273 7.35687 33.8273 8.33024V11.1218H14.0455V8.33024C14.0455 7.35239 14.3568 6.93479 14.6246 6.73223C14.9321 6.49973 15.3494 6.42406 15.7343 6.42406Z" stroke="#828282" stroke-width="1.5"/>
<path d="M3.90322 12.641V13.391H4.65322H5.91641H34.1542C34.8445 13.391 35.4042 13.9507 35.4042 14.641V23.5027H32.251V18.0622V17.3122H31.501H4.65322H3.90322V18.0622V23.51H0.75V2.26C0.75 1.56965 1.30964 1.01 2 1.01H2.65322C3.34358 1.01 3.90322 1.56965 3.90322 2.26V12.641Z" stroke="#828282" stroke-width="1.5"/>
<path d="M11.1236 8.77282C11.1236 10.1396 9.99557 11.2668 8.58009 11.2668C7.16461 11.2668 6.03659 10.1396 6.03659 8.77282C6.03659 7.40607 7.16461 6.2788 8.58009 6.2788C9.99557 6.2788 11.1236 7.40607 11.1236 8.77282Z" stroke="#828282" stroke-width="1.5"/>
</svg>
