<svg width="33" height="27" viewBox="0 0 33 27" fill="none" xmlns="http://www.w3.org/2000/svg">
<path d="M16.372 0L32.572 10.0335V25.8234C32.572 26.21 32.2586 26.5234 31.872 26.5234C31.4854 26.5234 31.172 26.21 31.172 25.8234V10.8132L16.372 1.64677L1.57203 10.8132V25.8234C1.57203 26.21 1.25863 26.5234 0.872028 26.5234C0.485428 26.5234 0.172028 26.21 0.172028 25.8234V10.0335L16.372 0Z" fill="#828282"/>
<path d="M8.87203 18.123C8.48543 18.123 8.17203 18.4364 8.17203 18.823C8.17203 19.2096 8.48543 19.523 8.87203 19.523H10.872C11.2586 19.523 11.572 19.2096 11.572 18.823C11.572 18.4364 11.2586 18.123 10.872 18.123H8.87203Z" fill="#828282"/>
<path d="M21.172 18.823C21.172 18.4364 21.4854 18.123 21.872 18.123H23.872C24.2586 18.123 24.572 18.4364 24.572 18.823C24.572 19.2096 24.2586 19.523 23.872 19.523H21.872C21.4854 19.523 21.172 19.2096 21.172 18.823Z" fill="#828282"/>
<path fill-rule="evenodd" clip-rule="evenodd" d="M4.87198 22.8232H5.87198V23.8232C5.87198 24.9278 6.76741 25.8232 7.87198 25.8232H9.87198C10.9765 25.8232 11.872 24.9278 11.872 23.8232V22.8232H20.872V23.8232C20.872 24.9278 21.7674 25.8232 22.872 25.8232H24.872C25.9765 25.8232 26.872 24.9278 26.872 23.8232V22.8232H27.872V18.8232C27.872 17.1882 26.8909 15.7823 25.4854 15.162L23.528 11.8138C23.1694 11.2003 22.5121 10.8232 21.8014 10.8232H10.9425C10.2319 10.8232 9.57459 11.2003 9.21593 11.8138L7.25857 15.162C5.85301 15.7823 4.87198 17.1882 4.87198 18.8232V22.8232ZM9.87198 24.4232C10.2034 24.4232 10.472 24.1546 10.472 23.8232V22.8232H7.27198L7.27198 23.8232C7.27198 24.1546 7.54061 24.4232 7.87198 24.4232H9.87198ZM23.595 14.8232H9.14894L10.4245 12.5204C10.5321 12.3364 10.7293 12.2232 10.9425 12.2232H21.8014C22.0146 12.2232 22.2118 12.3364 22.3194 12.5204L23.595 14.8232ZM22.272 23.8232V22.8232H25.472V23.8232C25.472 24.1546 25.2034 24.4232 24.872 24.4232H22.872C22.5406 24.4232 22.272 24.1546 22.272 23.8232ZM23.872 16.2232H8.87198C7.43604 16.2232 6.27198 17.3873 6.27198 18.8232V21.4232H26.472V18.8232C26.472 17.3873 25.3079 16.2232 23.872 16.2232Z" fill="#828282"/>
</svg>
